<?xml version="1.0" encoding="iso-8859-1"?>
<svg display="none" version="1.1" xmlns="http://www.w3.org/2000/svg" xmlns:xlink="http://www.w3.org/1999/xlink">
<defs>
<symbol id="block" viewBox="0 0 510 510">
	<path d="M255, 0C114.75, 0, 0, 114.75, 0, 255s114.75, 255, 255, 255s255-114.75, 255-255S395.25, 0, 255, 0z M51, 255c0-112.2, 91.8-204, 204-204 c45.9, 0, 89.25, 15.3, 124.95, 43.35l-285.6, 285.6C66.3, 344.25, 51, 300.9, 51, 255z M255, 459c-45.9, 0-89.25-15.3-124.95-43.35 L415.65, 130.05C443.7, 165.75, 459, 209.1, 459, 255C459, 367.2, 367.2, 459, 255, 459z"/>
</symbol>
<symbol id="unblock" viewBox="0 0 510 510">
	<path d="M150.45, 206.55l-35.7, 35.7L229.5, 357l255-255l-35.7-35.7L229.5, 285.6L150.45, 206.55z M459, 255c0, 112.2-91.8, 204-204, 204 S51, 367.2, 51, 255S142.8, 51, 255, 51c20.4, 0, 38.25, 2.55, 56.1, 7.65l40.801-40.8C321.3, 7.65, 288.15, 0, 255, 0C114.75, 0, 0, 114.75, 0, 255 s114.75, 255, 255, 255s255-114.75, 255-255H459z"/>
</symbol>
<symbol id="refresh" viewBox="0 0 492.883 492.883">
	<path d="M122.941, 374.241c-20.1-18.1-34.6-39.8-44.1-63.1c-25.2-61.8-13.4-135.3, 35.8-186l45.4, 45.4c2.5, 2.5, 7, 0.7, 7.6-3 l24.8-162.3c0.4-2.7-1.9-5-4.6-4.6l-162.4, 24.8c-3.7, 0.6-5.5, 5.1-3, 7.6l45.5, 45.5c-75.1, 76.8-87.9, 192-38.6, 282 c14.8, 27.1, 35.3, 51.9, 61.4, 72.7c44.4, 35.3, 99, 52.2, 153.2, 51.1l10.2-66.7C207.441, 421.641, 159.441, 407.241, 122.941, 374.241z"/>
	<path d="M424.941, 414.341c75.1-76.8, 87.9-192, 38.6-282c-14.8-27.1-35.3-51.9-61.4-72.7c-44.4-35.3-99-52.2-153.2-51.1l-10.2, 66.7 c46.6-4, 94.7,  10.4, 131.2,  43.4c20.1, 18.1, 34.6, 39.8, 44.1, 63.1c25.2, 61.8, 13.4, 135.3-35.8, 186l-45.4-45.4c-2.5-2.5-7-0.7-7.6, 3 l-24.8, 162.3c-0.4, 2.7, 1.9, 5, 4.6, 4.6l162.4-24.8c3.7-0.6, 5.4-5.1, 3-7.6L424.941, 414.341z"/>
</symbol>
<symbol id="accept" viewBox="0 0 97.619 97.618">
	<path d="M96.939,17.358L83.968,5.959c-0.398-0.352-0.927-0.531-1.449-0.494C81.99,5.5,81.496,5.743,81.146,6.142L34.1,59.688
		L17.372,37.547c-0.319-0.422-0.794-0.701-1.319-0.773c-0.524-0.078-1.059,0.064-1.481,0.385L0.794,47.567
		c-0.881,0.666-1.056,1.92-0.39,2.801l30.974,40.996c0.362,0.479,0.922,0.771,1.522,0.793c0.024,0,0.049,0,0.073,0
		c0.574,0,1.122-0.246,1.503-0.68l62.644-71.297C97.85,19.351,97.769,18.086,96.939,17.358z"/>
</symbol>
<symbol id="remove" viewBox="0 0 469.404 469.404">
	<path d="M310.4,235.083L459.88,85.527c12.545-12.546,12.545-32.972,0-45.671L429.433,9.409c-12.547-12.546-32.971-12.546-45.67,0
		L234.282,158.967L85.642,10.327c-12.546-12.546-32.972-12.546-45.67,0L9.524,40.774c-12.546,12.546-12.546,32.972,0,45.671
		l148.64,148.639L9.678,383.495c-12.546,12.546-12.546,32.971,0,45.67l30.447,30.447c12.546,12.546,32.972,12.546,45.67,0
		l148.487-148.41l148.792,148.793c12.547,12.546,32.973,12.546,45.67,0l30.447-30.447c12.547-12.546,12.547-32.972,0-45.671
		L310.4,235.083z"/>
</symbol>
<symbol id="edit" viewBox="0 0 268.725 268.725">
	<path style="fill-rule:evenodd;clip-rule:evenodd;" d="M161.359, 56.337c-7.041-7.049-18.458-7.049-25.498, 0l-6.374, 6.381 l-89.243, 89.337l0.023, 0.023l-2.812, 2.82c0, 0-8.968, 9.032-29.216, 74.399c-0.142, 0.457-0.283, 0.911-0.426, 1.374 c-0.361, 1.171-0.726, 2.361-1.094, 3.567c-0.326, 1.066-0.656, 2.154-0.987, 3.249c-0.279, 0.923-0.556, 1.836-0.839, 2.779 c-0.642, 2.14-1.292, 4.318-1.955, 6.567c-1.455, 4.937-5.009, 16.07-0.99, 20.1c3.87, 3.882, 15.12, 0.467, 20.043-0.993 c2.232-0.662, 4.395-1.311, 6.519-1.952c0.981-0.296, 1.932-0.586, 2.891-0.878c1.031-0.314, 2.057-0.626, 3.062-0.935 c1.269-0.39, 2.52-0.775, 3.75-1.157c0.367-0.114, 0.727-0.227, 1.091-0.34c62.192-19.365, 73.357-28.453, 74.285-29.284 c0.007-0.005, 0.007-0.005, 0.012-0.01c0.039-0.036, 0.066-0.06, 0.066-0.06l2.879-2.886l0.193, 0.193l89.245-89.337l-0.001-0.001 l6.374-6.381c7.041-7.048, 7.041-18.476, 0-25.525L161.359, 56.337z M103.399, 219.782c-0.078, 0.053-0.184, 0.122-0.296, 0.193 c-0.062, 0.04-0.137, 0.087-0.211, 0.133c-0.075, 0.047-0.157, 0.098-0.244, 0.151c-0.077, 0.047-0.157, 0.095-0.243, 0.147 c-2.969, 1.777-11.682, 6.362-32.828, 14.017c-2.471, 0.894-5.162, 1.842-7.981, 2.819l-30.06-30.091c0.98-2.84, 1.929-5.551, 2.826-8.041 c7.638-21.235, 12.219-29.974, 13.986-32.939c0.043-0.071, 0.082-0.136, 0.121-0.2c0.062-0.102, 0.12-0.197, 0.174-0.284 c0.043-0.069, 0.088-0.141, 0.126-0.2c0.071-0.111, 0.14-0.217, 0.193-0.296l2.2-2.206l54.485, 54.542L103.399, 219.782z M263.351, 56.337 l-50.997-51.05c-7.041-7.048-18.456-7.048-25.498, 0l-12.748, 12.763c-7.041, 7.048-7.041, 18.476, 0, 25.524l50.996, 51.05 c7.04, 7.048, 18.457, 7.048, 25.498, 0l12.749-12.762C270.392, 74.813, 270.392, 63.385, 263.351, 56.337z"/>
</symbol>
<symbol id="save" viewBox="0 0 415.582 415.582">
	<path d="M411.47, 96.426l-46.319-46.32c-5.482-5.482-14.371-5.482-19.853, 0L152.348, 243.058l-82.066-82.064 c-5.48-5.482-14.37-5.482-19.851, 0l-46.319, 46.32c-5.482, 5.481-5.482, 14.37, 0, 19.852l138.311, 138.31 c2.741, 2.742, 6.334, 4.112, 9.926, 4.112c3.593, 0, 7.186-1.37, 9.926-4.112L411.47, 116.277c2.633-2.632, 4.111-6.203, 4.111-9.925 C415.582, 102.628, 414.103, 99.059, 411.47, 96.426z"/>
</symbol>
<symbol id="delete" viewBox="0 0 459 459">
	<path d="M76.5, 408c0, 28.05, 22.95, 51, 51, 51h204c28.05, 0, 51-22.95, 51-51V102h-306V408z M408, 25.5h-89.25L293.25, 0h-127.5l-25.5, 25.5 H51v51h357V25.5z"/>
</symbol>
<symbol id="view" viewBox="0 0 932.15 932.15">
	<path d="M466.075, 161.525c-205.6, 0-382.8, 121.2-464.2, 296.1c-2.5, 5.3-2.5, 11.5, 0, 16.9c81.4, 174.899, 258.601, 296.1, 464.2, 296.1 s382.8-121.2, 464.2-296.1c2.5-5.3, 2.5-11.5, 0-16.9C848.875, 282.725, 671.675, 161.525, 466.075, 161.525z M466.075, 676.226 c-116.1, 0-210.1-94.101-210.1-210.101c0-116.1, 94.1-210.1, 210.1-210.1c116.1, 0, 210.1, 94.1, 210.1, 210.1 S582.075, 676.226, 466.075, 676.226z"/>
	<circle cx="466.075" cy="466.025" r="134.5"/>
</symbol>
</defs>
</svg>